<svg xmlns="http://www.w3.org/2000/svg" width="500" height="750">
<path style="fill:#383838; stroke:none;" d="M0 0L0 750L500 750L500 0L0 0z"/>
<path style="fill:#383838; stroke:none;" d="M242 279L242 280L245 280L242 279z"/>
<path style="fill:#383838; stroke:none;" d="M245 279L245 280L248 280L245 279z"/>
<path style="fill:#383838; stroke:none;" d="M248 279L249 280L248 279z"/>
<path style="fill:#ffffff; stroke:none;" d="M249 279.594C241.552 279.866 234.633 281.309 228 284.785C184.927 307.357 201.633 376.209 251 374.406C258.45 374.134 265.321 372.562 272 369.191C315.749 347.108 297.919 277.807 249 279.594z"/>
<path style="fill:#383838; stroke:none;" d="M251 279L252 280L251 279z"/>
<path style="fill:#383838; stroke:none;" d="M252 279L252 280L255 280L252 279z"/>
<path style="fill:#383838; stroke:none;" d="M255 279L255 280L258 280L255 279M238 280L239 281L238 280z"/>
<path style="fill:#383838; stroke:none;" d="M239 280L240 281L239 280M260 280L261 281L260 280z"/>
<path style="fill:#383838; stroke:none;" d="M261.667 280.333L262.333 280.667L261.667 280.333M234 281L235 282L234 281z"/>
<path style="fill:#383838; stroke:none;" d="M235 281L236 282L235 281M264 281L265 282L264 281z"/>
<path style="fill:#383838; stroke:none;" d="M265 281L266 282L265 281M232 282L233 283L232 282M267 282L268 283L267 282z"/>
<path style="fill:#383838; stroke:none;" d="M230 283L231 284L230 283M269 283L270 284L269 283z"/>
<path style="fill:#383838; stroke:none;" d="M270 283L271 284L270 283M227 284L228 285L227 284z"/>
<path style="fill:#383838; stroke:none;" d="M228 284L229 285L228 284M271 284L272 285L271 284z"/>
<path style="fill:#383838; stroke:none;" d="M272 284L273 285L272 284z"/>
<path style="fill:#383838; stroke:none;" d="M226 285L227 286L226 285M273 285L274 286L273 285z"/>
<path style="fill:#383838; stroke:none;" d="M224 286L225 287L224 286M275 286L276 287L275 286z"/>
<path style="fill:#383838; stroke:none;" d="M223 287L224 288L223 287M276 287L277 288L276 287z"/>
<path style="fill:#383838; stroke:none;" d="M221 288L222 289L221 288M278 288L279 289L278 288z"/>
<path style="fill:#383838; stroke:none;" d="M220 289L221 290L220 289M279 289L280 290L279 289z"/>
<path style="fill:#383838; stroke:none;" d="M219 290L220 291L219 290M280 290L281 291L280 290M218 291L219 292L218 291M281 291L282 292L281 291z"/>
<path style="fill:#383838; stroke:none;" d="M283 292L284 293L283 292M215 293L216 294L215 293M284 293L285 294L284 293z"/>
<path style="fill:#383838; stroke:none;" d="M214 295L215 296L214 295M285 295L286 296L285 295M213 296L214 297L213 296M286 296L287 297L286 296z"/>
<path style="fill:#383838; stroke:none;" d="M212 297L213 298L212 297M287 297L288 298L287 297z"/>
<path style="fill:#383838; stroke:none;" d="M211 298L212 299L211 298M288 298L289 299L288 298z"/>
<path style="fill:#383838; stroke:none;" d="M210 300L211 301L210 300M289 300L290 301L289 300z"/>
<path style="fill:#383838; stroke:none;" d="M209 301L210 302L209 301M290 301L291 302L290 301z"/>
<path style="fill:#383838; stroke:none;" d="M208 303L209 304L208 303M291 303L292 304L291 303z"/>
<path style="fill:#383838; stroke:none;" d="M207 304L208 305L207 304M292 304L293 305L292 304z"/>
<path style="fill:#383838; stroke:none;" d="M207 305L208 306L207 305M292 305L293 306L292 305z"/>
<path style="fill:#383838; stroke:none;" d="M206 306L207 307L206 306M293 306L294 307L293 306z"/>
<path style="fill:#383838; stroke:none;" d="M206 307L207 308L206 307M293 307L294 308L293 307z"/>
<path style="fill:#383838; stroke:none;" d="M205 309L206 310L205 309M294 309L295 310L294 309z"/>
<path style="fill:#383838; stroke:none;" d="M205 310L206 311L205 310z"/>
<path style="fill:#383838; stroke:none;" d="M204 311L205 312L204 311M295 311L296 312L295 311z"/>
<path style="fill:#383838; stroke:none;" d="M204 312L205 313L204 312M295 312L296 313L295 312z"/>
<path style="fill:#383838; stroke:none;" d="M203 315L204 316L203 315M296 315L297 316L296 315z"/>
<path style="fill:#383838; stroke:none;" d="M203 316L204 317L203 316M296 316L297 317L296 316z"/>
<path style="fill:#383838; stroke:none;" d="M202 319L202 322L203 322L202 319M297 319L297 322L298 322L297 319z"/>
<path style="fill:#383838; stroke:none;" d="M202 322L202 325L203 325L202 322M297 322L297 325L298 325L297 322z"/>
<path style="fill:#383838; stroke:none;" d="M202 325L203 326L202 325M297 325L298 326L297 325M202 328L203 329L202 328M297 328L298 329L297 328z"/>
<path style="fill:#383838; stroke:none;" d="M202 329L202 332L203 332L202 329M297 329L297 332L298 332L297 329z"/>
<path style="fill:#383838; stroke:none;" d="M202 332L202 335L203 335L202 332M297 332L297 335L298 335L297 332z"/>
<path style="fill:#383838; stroke:none;" d="M203 337L204 338L203 337M296 337L297 338L296 337z"/>
<path style="fill:#383838; stroke:none;" d="M203 338L204 339L203 338M296 338L297 339L296 338z"/>
<path style="fill:#383838; stroke:none;" d="M204 341L205 342L204 341M295 341L296 342L295 341z"/>
<path style="fill:#383838; stroke:none;" d="M204 342L205 343L204 342M295 342L296 343L295 342z"/>
<path style="fill:#383838; stroke:none;" d="M205 343L206 344L205 343z"/>
<path style="fill:#383838; stroke:none;" d="M205 344L206 345L205 344M294 344L295 345L294 344z"/>
<path style="fill:#383838; stroke:none;" d="M206 346L207 347L206 346M293 346L294 347L293 346z"/>
<path style="fill:#383838; stroke:none;" d="M206 347L207 348L206 347M293 347L294 348L293 347z"/>
<path style="fill:#383838; stroke:none;" d="M207 348L208 349L207 348M292 348L293 349L292 348z"/>
<path style="fill:#383838; stroke:none;" d="M207 349L208 350L207 349M292 349L293 350L292 349z"/>
<path style="fill:#383838; stroke:none;" d="M208 350L209 351L208 350M291 350L292 351L291 350z"/>
<path style="fill:#383838; stroke:none;" d="M209 352L210 353L209 352M290 352L291 353L290 352z"/>
<path style="fill:#383838; stroke:none;" d="M210 353L211 354L210 353M289 353L290 354L289 353z"/>
<path style="fill:#383838; stroke:none;" d="M211 355L212 356L211 355M288 355L289 356L288 355z"/>
<path style="fill:#383838; stroke:none;" d="M212 356L213 357L212 356M287 356L288 357L287 356z"/>
<path style="fill:#383838; stroke:none;" d="M213 357L214 358L213 357M286 357L287 358L286 357M214 358L215 359L214 358M285 358L286 359L285 358z"/>
<path style="fill:#383838; stroke:none;" d="M215 360L216 361L215 360M284 360L285 361L284 360M283 361L284 362L283 361z"/>
<path style="fill:#383838; stroke:none;" d="M218 362L219 363L218 362M281 362L282 363L281 362M219 363L220 364L219 363M280 363L281 364L280 363z"/>
<path style="fill:#383838; stroke:none;" d="M220 364L221 365L220 364M279 364L280 365L279 364z"/>
<path style="fill:#383838; stroke:none;" d="M221 365L222 366L221 365M278 365L279 366L278 365z"/>
<path style="fill:#383838; stroke:none;" d="M223 366L224 367L223 366M276 366L277 367L276 366z"/>
<path style="fill:#383838; stroke:none;" d="M224 367L225 368L224 367M275 367L276 368L275 367z"/>
<path style="fill:#383838; stroke:none;" d="M226 368L227 369L226 368M273 368L274 369L273 368z"/>
<path style="fill:#383838; stroke:none;" d="M227 369L228 370L227 369z"/>
<path style="fill:#383838; stroke:none;" d="M228 369L229 370L228 369M271 369L272 370L271 369z"/>
<path style="fill:#383838; stroke:none;" d="M272 369L273 370L272 369z"/>
<path style="fill:#383838; stroke:none;" d="M230 370L231 371L230 370M269 370L270 371L269 370z"/>
<path style="fill:#383838; stroke:none;" d="M270 370L271 371L270 370M232 371L233 372L232 371z"/>
<path style="fill:#383838; stroke:none;" d="M233 371L234 372L233 371M266 371L267 372L266 371z"/>
<path style="fill:#383838; stroke:none;" d="M267 371L268 372L267 371M234 372L235 373L234 372z"/>
<path style="fill:#383838; stroke:none;" d="M235 372L236 373L235 372M264 372L265 373L264 372z"/>
<path style="fill:#383838; stroke:none;" d="M265 372L266 373L265 372M238 373L239 374L238 373z"/>
<path style="fill:#383838; stroke:none;" d="M239 373L240 374L239 373M260 373L261 374L260 373z"/>
<path style="fill:#383838; stroke:none;" d="M261.667 373.333L262.333 373.667L261.667 373.333M242 374L242 375L245 375L242 374z"/>
<path style="fill:#383838; stroke:none;" d="M245 374L245 375L248 375L245 374z"/>
<path style="fill:#383838; stroke:none;" d="M248 374L249 375L248 374M251 374L252 375L251 374z"/>
<path style="fill:#383838; stroke:none;" d="M252 374L252 375L255 375L252 374z"/>
<path style="fill:#383838; stroke:none;" d="M255 374L255 375L258 375L255 374M234 391L234 392L240 392L234 391z"/>
<path style="fill:#383838; stroke:none;" d="M240 391L240 392L244 392L240 391z"/>
<path style="fill:#383838; stroke:none;" d="M244 391L244 392L248 392L244 391z"/>
<path style="fill:#ffffff; stroke:none;" d="M248 391.464C216.666 394.206 181.797 398.253 163.467 428C157.521 437.649 148.034 458.417 160.105 467.297C170.855 475.205 193.374 471 206 471L287 471C300.717 471 315.396 472.483 329 470.711C357.783 466.961 341.758 432.526 329.711 419.015C310.976 398.003 275.352 389.07 248 391.464z"/>
<path style="fill:#383838; stroke:none;" d="M252 391L252 392L256 392L252 391z"/>
<path style="fill:#383838; stroke:none;" d="M256 391L256 392L260 392L256 391z"/>
<path style="fill:#383838; stroke:none;" d="M260 391L260 392L266 392L260 391M226 392L226 393L229 393L226 392z"/>
<path style="fill:#383838; stroke:none;" d="M229 392L230 393L229 392z"/>
<path style="fill:#383838; stroke:none;" d="M230 392L231 393L230 392M269 392L270 393L269 392z"/>
<path style="fill:#383838; stroke:none;" d="M270 392L271 393L270 392z"/>
<path style="fill:#383838; stroke:none;" d="M271 392L271 393L274 393L271 392M220.667 393.333L221.333 393.667L220.667 393.333z"/>
<path style="fill:#383838; stroke:none;" d="M222 393L223 394L222 393M277 393L278 394L277 393z"/>
<path style="fill:#383838; stroke:none;" d="M278.667 393.333L279.333 393.667L278.667 393.333M215.667 394.333L216.333 394.667L215.667 394.333z"/>
<path style="fill:#383838; stroke:none;" d="M217 394L218 395L217 394M282 394L283 395L282 394z"/>
<path style="fill:#383838; stroke:none;" d="M283.667 394.333L284.333 394.667L283.667 394.333M211.667 395.333L212.333 395.667L211.667 395.333z"/>
<path style="fill:#383838; stroke:none;" d="M213 395L214 396L213 395M286 395L287 396L286 395z"/>
<path style="fill:#383838; stroke:none;" d="M287.667 395.333L288.333 395.667L287.667 395.333M208 396L209 397L208 396z"/>
<path style="fill:#383838; stroke:none;" d="M209 396L210 397L209 396M290 396L291 397L290 396z"/>
<path style="fill:#383838; stroke:none;" d="M291.667 396.333L292.333 396.667L291.667 396.333M204.667 397.333L205.333 397.667L204.667 397.333M294.667 397.333L295.333 397.667L294.667 397.333M201.667 398.333L202.333 398.667L201.667 398.333M297.667 398.333L298.333 398.667L297.667 398.333M199 399L200 400L199 399z"/>
<path style="fill:#383838; stroke:none;" d="M200 399L201 400L200 399M299 399L300 400L299 399z"/>
<path style="fill:#383838; stroke:none;" d="M300 399L301 400L300 399M196 400L197 401L196 400z"/>
<path style="fill:#383838; stroke:none;" d="M197 400L198 401L197 400M302 400L303 401L302 400z"/>
<path style="fill:#383838; stroke:none;" d="M303 400L304 401L303 400M194 401L195 402L194 401z"/>
<path style="fill:#383838; stroke:none;" d="M195 401L196 402L195 401M304 401L305 402L304 401z"/>
<path style="fill:#383838; stroke:none;" d="M305 401L306 402L305 401M192 402L193 403L192 402z"/>
<path style="fill:#383838; stroke:none;" d="M193 402L194 403L193 402M306 402L307 403L306 402z"/>
<path style="fill:#383838; stroke:none;" d="M307 402L308 403L307 402M190 403L191 404L190 403z"/>
<path style="fill:#383838; stroke:none;" d="M191 403L192 404L191 403M308 403L309 404L308 403z"/>
<path style="fill:#383838; stroke:none;" d="M309 403L310 404L309 403M188 404L189 405L188 404z"/>
<path style="fill:#383838; stroke:none;" d="M189 404L190 405L189 404M310 404L311 405L310 404z"/>
<path style="fill:#383838; stroke:none;" d="M311 404L312 405L311 404z"/>
<path style="fill:#383838; stroke:none;" d="M187 405L188 406L187 405M312 405L313 406L312 405z"/>
<path style="fill:#383838; stroke:none;" d="M185 406L186 407L185 406M314 406L315 407L314 406z"/>
<path style="fill:#383838; stroke:none;" d="M184 407L185 408L184 407M315 407L316 408L315 407z"/>
<path style="fill:#383838; stroke:none;" d="M182 408L183 409L182 408M317 408L318 409L317 408z"/>
<path style="fill:#383838; stroke:none;" d="M181 409L182 410L181 409M318 409L319 410L318 409z"/>
<path style="fill:#383838; stroke:none;" d="M179 410L180 411L179 410M320 410L321 411L320 410M178 411L179 412L178 411M321 411L322 412L321 411z"/>
<path style="fill:#383838; stroke:none;" d="M177 412L178 413L177 412M322 412L323 413L322 412z"/>
<path style="fill:#383838; stroke:none;" d="M176 413L177 414L176 413M323 413L324 414L323 413z"/>
<path style="fill:#383838; stroke:none;" d="M174 414L175 415L174 414M325 414L326 415L325 414M173 415L174 416L173 415M326 415L327 416L326 415M172 416L173 417L172 416M327 416L328 417L327 416M171 417L172 418L171 417M328 417L329 418L328 417M170 418L171 419L170 418M329 418L330 419L329 418M169 419L170 420L169 419M330 419L331 420L330 419z"/>
<path style="fill:#383838; stroke:none;" d="M168 421L169 422L168 421M331 421L332 422L331 421z"/>
<path style="fill:#383838; stroke:none;" d="M167 422L168 423L167 422M332 422L333 423L332 422z"/>
<path style="fill:#383838; stroke:none;" d="M166 423L167 424L166 423M333 423L334 424L333 423M165 424L166 425L165 424M334 424L335 425L334 424z"/>
<path style="fill:#383838; stroke:none;" d="M164 426L165 427L164 426M335 426L336 427L335 426z"/>
<path style="fill:#383838; stroke:none;" d="M163 427L164 428L163 427M336 427L337 428L336 427z"/>
<path style="fill:#383838; stroke:none;" d="M162 429L163 430L162 429M337 429L338 430L337 429z"/>
<path style="fill:#383838; stroke:none;" d="M161 430L162 431L161 430M338 430L339 431L338 430z"/>
<path style="fill:#383838; stroke:none;" d="M161 431L162 432L161 431M338 431L339 432L338 431z"/>
<path style="fill:#383838; stroke:none;" d="M160 432L161 433L160 432M339 432L340 433L339 432z"/>
<path style="fill:#383838; stroke:none;" d="M160 433L161 434L160 433M339 433L340 434L339 433z"/>
<path style="fill:#383838; stroke:none;" d="M159 434L160 435L159 434M340 434L341 435L340 434z"/>
<path style="fill:#383838; stroke:none;" d="M159 435L160 436L159 435M340 435L341 436L340 435z"/>
<path style="fill:#383838; stroke:none;" d="M158 436L159 437L158 436M341 436L342 437L341 436z"/>
<path style="fill:#383838; stroke:none;" d="M158 437L159 438L158 437z"/>
<path style="fill:#383838; stroke:none;" d="M341 437L342 438L341 437z"/>
<path style="fill:#383838; stroke:none;" d="M157.333 438.667L157.667 439.333L157.333 438.667M342.333 438.667L342.667 439.333L342.333 438.667M156 441L157 442L156 441M343 441L344 442L343 441z"/>
<path style="fill:#383838; stroke:none;" d="M156 442L157 443L156 442M343 442L344 443L343 442z"/>
<path style="fill:#383838; stroke:none;" d="M155.333 444.667L155.667 445.333L155.333 444.667M344.333 444.667L344.667 445.333L344.333 444.667z"/>
<path style="fill:#383838; stroke:none;" d="M155 446L156 447L155 446M344 446L345 447L344 446z"/>
<path style="fill:#383838; stroke:none;" d="M154.333 449.667L154.667 450.333L154.333 449.667M345.333 449.667L345.667 450.333L345.333 449.667z"/>
<path style="fill:#383838; stroke:none;" d="M154.333 451.667L154.667 452.333L154.333 451.667M345.333 451.667L345.667 452.333L345.333 451.667z"/>
<path style="fill:#383838; stroke:none;" d="M154 453L155 454L154 453M345 453L346 454L345 453M345.333 455.667L345.667 456.333L345.333 455.667M154 456L155 457L154 456z"/>
<path style="fill:#383838; stroke:none;" d="M154 457L155 458L154 457M345 457L346 458L345 457z"/>
<path style="fill:#383838; stroke:none;" d="M154.333 458.667L154.667 459.333L154.333 458.667M345.333 458.667L345.667 459.333L345.333 458.667z"/>
<path style="fill:#383838; stroke:none;" d="M155 461L156 462L155 461M344 461L345 462L344 461z"/>
<path style="fill:#383838; stroke:none;" d="M155 462L156 463L155 462M344 462L345 463L344 462z"/>
<path style="fill:#383838; stroke:none;" d="M156 463L157 464L156 463z"/>
<path style="fill:#383838; stroke:none;" d="M343 463L344 464L343 463z"/>
<path style="fill:#383838; stroke:none;" d="M157 465L158 466L157 465M342 465L343 466L342 465M158 466L159 467L158 466M341 466L342 467L341 466M159 467L160 468L159 467M340 467L341 468L340 467M161 468L162 469L161 468M338 468L339 469L338 468M163 469L164 470L163 469z"/>
<path style="fill:#383838; stroke:none;" d="M164 469L165 470L164 469M335 469L336 470L335 469z"/>
<path style="fill:#383838; stroke:none;" d="M336 469L337 470L336 469M166 470L167 471L166 470z"/>
<path style="fill:#383838; stroke:none;" d="M167.667 470.333L168.333 470.667L167.667 470.333z"/>
<path style="fill:#383838; stroke:none;" d="M169 470L170 471L169 470M330 470L331 471L330 470z"/>
<path style="fill:#383838; stroke:none;" d="M331.667 470.333L332.333 470.667L331.667 470.333z"/>
<path style="fill:#383838; stroke:none;" d="M333 470L334 471L333 470z"/>
</svg>